<?xml version="1.0" encoding="UTF-8"?>
<svg viewBox="0 0 64 64" version="1.1" xmlns="http://www.w3.org/2000/svg" xmlns:xlink="http://www.w3.org/1999/xlink">
    <g stroke="none" stroke-width="1" fill="none" fill-rule="evenodd">
        <rect fill="#1B243D" x="0" y="0" width="64" height="64"></rect>
        <path d="M31.9009096,20.0005293 L32.10784,20.0005293 L32.3742642,20.0095411 C32.6224177,20.0217989 32.8955887,20.0450576 33.1875183,20.0819503 C33.997437,20.184304 34.8101157,20.37224 35.5751795,20.6649233 C36.7538518,21.1158371 38.192709,22.1345217 38.9677806,22.970783 C39.7806364,23.8478115 40.6254703,25.2762637 40.9003155,26.4358992 C40.9313008,26.5666333 40.9594474,26.700728 40.9848195,26.837944 C41.1742918,27.8626328 41.1994765,28.9640229 41.1277304,29.9655998 L41.0937406,30.3433047 L41.0475851,30.7190676 L41.4325423,30.9357044 L41.4763925,30.9622961 C41.5615927,31.0145017 41.6573491,31.0763356 41.7609454,31.1472205 C42.0578603,31.3503818 42.3549068,31.5833677 42.6302135,31.8406397 C42.7732799,31.9743341 42.9067247,32.1112927 43.0287821,32.2508991 C43.54052,32.8362123 44.0644301,33.6530887 44.347193,34.4839338 C44.696738,35.5110056 44.8679012,36.9443588 44.8193256,37.5963672 C44.7804354,38.1183738 44.7195587,38.522971 44.6245996,38.860359 C44.5932262,38.9718274 44.5571589,39.0836914 44.5152038,39.2010753 L44.4209031,39.4493362 L44.1786012,40.0484262 C43.7366865,41.2317698 42.2753794,42.8197517 40.815922,43.4256911 C39.4984735,43.9726707 37.9355963,44.124553 36.5185401,44.0451739 L36.3213591,44.031623 C36.2031079,44.0222984 36.0764609,44.0104501 35.944059,43.995777 C35.5871917,43.9562285 35.2406189,43.9021362 34.9287379,43.8320381 C34.7863701,43.8000397 34.6388157,43.7563347 34.4754854,43.6991216 L34.0197208,43.5242047 C33.9035023,43.4779881 33.7900682,43.4329061 33.7496445,43.4178779 C32.9910862,43.1358716 31.0084941,43.1358716 30.2499359,43.4178779 L29.6930762,43.6373392 C29.4597105,43.7258972 29.2606661,43.7893736 29.0708424,43.8320381 C28.7589615,43.9021362 28.4123886,43.9562285 28.0555213,43.995777 L27.8615648,44.0157057 L27.4810402,44.0451739 C26.0639841,44.124553 24.5011068,43.9726707 23.1836585,43.4256911 C21.7971737,42.8500487 20.40902,41.3881129 19.8947842,40.2287892 L19.5518744,39.3819318 C19.4796621,39.1956543 19.4220408,39.0275616 19.3749809,38.860359 C19.2800216,38.522971 19.2191451,38.1183738 19.1802547,37.5963672 C19.131679,36.9443588 19.3028425,35.5110056 19.6523875,34.4839338 C19.9351503,33.6530887 20.4590604,32.8362123 20.9707983,32.2508991 C21.0928558,32.1112927 21.2263004,31.9743341 21.3693669,31.8406397 C21.6446736,31.5833677 21.9417201,31.3503818 22.2386349,31.1472205 L22.4345696,31.0176897 L22.6206691,30.9043172 L22.9519953,30.7190676 L22.8958049,30.2495005 L22.8718499,29.9655998 C22.8001037,28.9640229 22.8252885,27.8626328 23.0147608,26.837944 C23.040133,26.700728 23.0682796,26.5666333 23.0992649,26.4358992 C23.3741101,25.2762637 24.2189438,23.8478115 25.0317997,22.970783 C25.8068713,22.1345217 27.2457285,21.1158371 28.4244008,20.6649233 C29.1894647,20.37224 30.0021434,20.184304 30.812062,20.0819503 C31.1039916,20.0450576 31.3771626,20.0217989 31.6253162,20.0095411 L31.9009096,20.0005293 Z M32.2265626,38.1666214 L31.7733373,38.1666214 L31.5054885,38.1734814 C31.2539832,38.1846705 30.9442207,38.2122357 30.6698561,38.2763908 C30.2673993,38.3704979 29.9584354,38.6008772 29.9022659,38.6558207 C29.8029884,38.7529312 29.6913406,38.9404275 29.6751398,39.1663777 C29.6619268,39.3506586 29.7249175,39.5807756 29.7857277,39.7373072 L29.8213251,39.8214404 C29.8646894,39.9148223 30.0541646,40.3118731 30.3315292,40.6522668 C30.5693878,40.9441772 30.8881902,41.1804092 31.0501957,41.3064294 C31.4229235,41.5963656 31.8447684,41.6268514 31.9657448,41.6293693 L32.0225258,41.6295704 C32.1259928,41.6286144 32.5639502,41.6061361 32.9493847,41.3055191 L33.1211008,41.1723616 C33.2869553,41.0408743 33.4981522,40.8607742 33.6680512,40.6522668 C33.9454158,40.3118731 34.134891,39.9148223 34.1782552,39.8214404 C34.2464184,39.6746559 34.3402962,39.3875147 34.3244406,39.1663777 C34.3082398,38.9404275 34.196592,38.7529312 34.0973145,38.6558207 L34.0241653,38.5966219 C33.8992107,38.5052159 33.6427463,38.3495852 33.3297243,38.2763908 C33.0554696,38.2122614 32.7458453,38.1846926 32.4943941,38.1734941 L32.2265626,38.1666214 Z M37.383057,31.1818659 C36.9562222,31.1818659 36.5054807,31.4794332 36.2306862,32.0288245 C35.9681989,32.5536105 35.8719646,33.31203 35.8719646,34.0991677 C35.8719646,34.6209108 35.9070256,35.169885 36.0313064,35.5936551 C36.2908137,36.4785181 36.8187543,37.0164694 37.383057,37.0164694 C37.9009446,37.0164694 38.4033508,36.5287716 38.6756267,35.7620463 C38.8421116,35.2932269 38.8941494,34.7105199 38.8941494,34.0991677 C38.8941494,33.2965393 38.8242353,32.556285 38.552552,32.0288245 C38.2788635,31.4974705 37.8018681,31.1818659 37.383057,31.1818659 Z M26.6165233,31.0877594 C26.1896884,31.0877594 25.7389468,31.3853267 25.4641525,31.934718 C25.2016651,32.4595039 25.1054308,33.2179235 25.1054308,34.0050612 C25.1054308,34.5268043 25.1404918,35.0757785 25.2647726,35.4995486 C25.52428,36.3844115 26.0522204,36.9223629 26.6165233,36.9223629 C27.1344108,36.9223629 27.636817,36.4346651 27.9090929,35.6679398 C28.0755779,35.1991204 28.1276158,34.6164134 28.1276158,34.0050612 C28.1276158,33.2024328 28.0577014,32.4621785 27.7860182,31.934718 C27.5123296,31.403364 27.0353344,31.0877594 26.6165233,31.0877594 Z M25.5802862,20.0969448 C26.3117337,20.035974 26.9488197,20.1317454 27.2192377,20.1828545 C26.1329626,20.753676 25.0221696,21.594108 24.337982,22.3323102 C23.4225189,23.3200465 22.496081,24.8864759 22.1801165,26.2196027 C22.1454683,26.3657918 22.1141212,26.5151341 22.0859615,26.6674251 C21.905524,27.6432531 21.862386,28.6653838 21.905972,29.6253223 L21.9443197,30.2165434 L21.8397595,30.2804554 C21.805862,30.3025392 21.7615762,30.3320643 21.7040149,30.3714501 C21.370065,30.5999523 21.0362029,30.8618142 20.7233072,31.1542129 C20.5578437,31.3088372 20.4023852,31.4683893 20.2586937,31.6327401 C19.6729149,32.3027395 19.0860304,33.217805 18.7579841,34.181707 C18.5555157,34.776622 18.4079456,35.4815969 18.3207138,36.1308213 L18.2756588,36.5123395 L18.2167784,36.5766147 L18.0120903,36.5913656 C17.5758341,36.6098317 16.5392307,36.5833461 15.863041,35.9927703 C15.4729097,35.6520344 15.1600702,34.9842172 15.0545595,34.303115 C15.0090292,34.0092033 14.9951467,33.6874933 15.001426,33.4271609 C15.0121565,32.9822858 15.04917,32.4359834 15.1702291,31.8641975 C15.2816299,31.3380292 15.4688927,30.7908992 15.6680412,30.2676345 C16.0103243,29.3682819 16.4665036,28.5428302 16.8249812,27.9158018 L17.1430547,27.3595264 C17.7316022,26.3105843 18.7771928,24.6510226 20.2079756,23.2075682 C20.7217351,22.6892587 21.2980284,22.210305 21.8946123,21.780502 C22.4386454,21.3885587 22.9924683,21.0100165 23.5114161,20.7155451 C24.1541024,20.3508596 24.9077518,20.1530047 25.5802862,20.0969448 Z M38.4197138,20.0969448 C39.0922482,20.1530047 39.8458976,20.3508596 40.4885838,20.7155451 C41.0075317,21.0100165 41.5613545,21.3885587 42.1053875,21.780502 C42.7019715,22.210305 43.2782649,22.6892587 43.7920242,23.2075682 C45.1274216,24.5547923 46.1272736,26.0902699 46.733163,27.1418414 L47.2978395,28.1319894 C47.6334633,28.7271762 48.027707,29.46821 48.3319587,30.2676345 C48.5311072,30.7908992 48.71837,31.3380292 48.8297709,31.8641975 C48.9508299,32.4359834 48.9878433,32.9822858 48.998574,33.4271609 C49.0048533,33.6874933 48.9909708,34.0092033 48.9454405,34.303115 C48.8399298,34.9842172 48.5270901,35.6520344 48.1369589,35.9927703 C47.2618899,36.7570449 45.7832215,36.5766147 45.7832215,36.5766147 L45.7238693,36.5118245 C45.6483913,35.7675869 45.4845023,34.8954404 45.2415963,34.181707 C44.9135499,33.217805 44.3266655,32.3027395 43.7408867,31.6327401 C43.5971952,31.4683893 43.4417367,31.3088372 43.2762731,31.1542129 C42.9633775,30.8618142 42.6295155,30.5999523 42.2955654,30.3714501 L42.0561117,30.2132779 L42.0697666,30.0326004 C42.1467174,28.9583661 42.1198333,27.7826571 41.9136188,26.6674251 C41.8854591,26.5151341 41.8541121,26.3657918 41.8194638,26.2196027 C41.5034993,24.8864759 40.5770615,23.3200465 39.6615984,22.3323102 C38.977434,21.5941331 37.8666934,20.7537332 36.7804535,20.1829128 L36.9626213,20.1518147 C37.2855598,20.1021429 37.8210289,20.0470406 38.4197138,20.0969448 Z M33.4195089,44.2995751 L33.9703779,44.5167863 C34.1764341,44.5949807 34.3637582,44.6577365 34.5467692,44.7069912 L34.5339804,44.978758 C34.5289667,45.0627779 34.5231609,45.1391064 34.5164397,45.2043763 L34.5056559,45.2935663 C34.4680313,45.5554522 34.357958,46.1279001 34.1227062,46.5126031 C33.8715826,46.9232607 33.3850787,47.1072866 33.2234464,47.1898284 C33.0035735,47.3021122 32.590917,47.3515844 32.3060144,47.3730299 L31.9997902,47.3888889 C31.9997902,47.3888889 31.2615876,47.3747451 30.866997,47.2290585 L30.6263981,47.1183925 C30.4099014,47.0143056 30.0721925,46.8320035 29.8768742,46.5126031 C29.6416224,46.1279001 29.531549,45.5554522 29.4939244,45.2935663 L29.473732,45.0986076 C29.4649778,44.9853782 29.458144,44.8510498 29.4528142,44.7069903 C29.5748209,44.6741539 29.6987445,44.6353171 29.8288573,44.5899058 L30.0292024,44.5167863 C30.1455182,44.4726466 30.5144085,44.3239863 30.5800714,44.2995751 C31.1257077,44.096726 32.8738726,44.096726 33.4195089,44.2995751 Z" fill="#FFFFFF" fill-rule="nonzero"></path>
    </g>
</svg>