<svg xmlns="http://www.w3.org/2000/svg" width="64" height="64" viewBox="0 0 64 64">
  <g fill="none" fill-rule="evenodd">
    <rect width="64" height="64" fill="#ECDAB4"/>
    <g transform="translate(9 17)">
      <path fill="#F1453D" d="M43.3094164,28.3055105 C41.2051815,27.5016447 32.5565375,23.9882809 28.3953533,18.9806749 L23.8653375,14.5263158 L28.3527961,10.1145151 C34.3392276,4.40234405 41.4510697,1.45168616 43.3094164,0.742392789 C43.8815789,1.87253289 45.3947368,5.68852826 45.3947368,14.5263158 C45.3947368,23.3546467 43.8863073,27.1706421 43.3094164,28.3055105 L43.3094164,28.3055105 L43.3094164,28.3055105 Z M2.69058358,28.3055105 C2.11369274,27.1706421 0.605263158,23.3546467 0.605263158,14.5263158 C0.605263158,5.69325658 2.11369274,1.87726121 2.69058358,0.742392789 C4.55365984,1.45168616 11.6702303,4.40707237 17.6519323,10.1239717 L22.1346625,14.5263158 L17.6472039,18.9381165 C13.4481908,23.9835526 4.79481968,27.5016447 2.69058358,28.3055105 L2.69058358,28.3055105 L2.69058358,28.3055105 Z"/>
      <path fill="#B51F23" d="M2.99794468,1.51315789 C5.390625,2.47779605 11.7789888,5.35279605 17.2216289,10.549548 L21.2740546,14.5263158 L17.2216289,18.5030836 L17.1790704,18.5456421 L17.1412415,18.5929276 C13.3583467,23.1465875 5.71217105,26.4613487 2.99794468,27.5347454 C2.36430921,26.0357736 1.21052632,22.2292349 1.21052632,14.5263158 C1.21052632,6.81866837 2.36903753,3.01685916 2.99794468,1.51315789 L2.99794468,1.51315789 L2.99794468,1.51315789 Z M43.0020565,1.51788621 C43.6356908,3.01685916 44.7894737,6.82339668 44.7894737,14.5263158 C44.7894737,22.2434211 43.6309625,26.0452303 43.0020565,27.5394737 C40.2925573,26.4613487 32.6463816,23.1465875 28.8587585,18.5929276 L28.8209296,18.5456421 L28.7783723,18.5030836 L24.7259454,14.5263158 L28.7641862,10.5590046 C34.2068263,5.36698221 40.6046467,2.48252437 43.0020565,1.51788621 L43.0020565,1.51788621 L43.0020565,1.51788621 Z M43.5789474,0 C43.5789474,0 35.0296053,2.90337232 27.927221,9.68421053 L23,14.5263158 L27.927221,19.3684211 C32.8260697,25.2602802 43.5789474,29.0526316 43.5789474,29.0526316 C43.5789474,29.0526316 46,25.8229849 46,14.5263158 C46,3.22964668 43.5789474,0 43.5789474,0 L43.5789474,0 L43.5789474,0 Z M2.42105263,0 C2.42105263,0 0,3.22964668 0,14.5263158 C0,25.8229849 2.42105263,29.0526316 2.42105263,29.0526316 C2.42105263,29.0526316 13.1739315,25.2650085 18.0727802,19.3684211 L23,14.5263158 L18.0727802,9.68421053 C10.9703947,2.90337232 2.42105263,0 2.42105263,0 L2.42105263,0 L2.42105263,0 Z"/>
      <path fill="#E33B3B" d="M18.5172697,19.9736842 C18.2193665,19.3636927 17.5526316,17.6472039 17.5526316,14.5263158 C17.5526316,11.4054276 18.2146382,9.69366837 18.5172697,9.07894737 L27.4921881,9.07894737 C27.7853618,9.66529605 28.4473684,11.3392276 28.4473684,14.5263158 C28.4473684,17.7086757 27.7900902,19.3826072 27.4921881,19.9736842 L18.5172697,19.9736842 L18.5172697,19.9736842 Z"/>
      <path fill="#B51F23" d="M27.0997125,9.68421053 C27.3976157,10.4076888 27.8421053,11.9350329 27.8421053,14.5263158 C27.8421053,17.122327 27.3928862,18.6543994 27.1044408,19.3684211 L18.9097454,19.3684211 C18.6118421,18.6212999 18.1578947,17.0703131 18.1578947,14.5263158 C18.1578947,11.9775902 18.6118421,10.421875 18.9050171,9.68421053 L27.0997125,9.68421053 L27.0997125,9.68421053 L27.0997125,9.68421053 Z M27.8421053,8.47368421 L18.1578947,8.47368421 C18.1578947,8.47368421 16.9473684,10.2280019 16.9473684,14.5263158 C16.9473684,18.8246296 18.1578947,20.5789474 18.1578947,20.5789474 L27.8421053,20.5789474 C27.8421053,20.5789474 29.0526316,18.9286598 29.0526316,14.5263158 C29.0526316,10.1239717 27.8421053,8.47368421 27.8421053,8.47368421 L27.8421053,8.47368421 L27.8421053,8.47368421 Z"/>
      <path fill="#D13135" d="M15.7368421,13.3157895 L8.93235989,13.3157895 C7.39083089,13.3157895 7.02672758,11.6607736 7.40028753,10.6204776 C7.67927632,9.58490984 9.03639011,9.51870858 10.0672283,9.89699805 C11.0933394,10.2705592 15.7368421,13.3157895 15.7368421,13.3157895 L15.7368421,13.3157895 L15.7368421,13.3157895 Z M15.7368421,15.7368421 L8.93235989,15.7368421 C7.39083089,15.7368421 7.02672758,17.3918592 7.40028753,18.4321552 C7.67927632,19.4677217 9.03639011,19.533923 10.0672283,19.1556335 C11.0933394,18.7820724 15.7368421,15.7368421 15.7368421,15.7368421 L15.7368421,15.7368421 L15.7368421,15.7368421 Z M30.2631579,13.3157895 L37.0676401,13.3157895 C38.6091691,13.3157895 38.9732736,11.6607736 38.5997125,10.6204776 C38.3207237,9.58490984 36.9636099,9.51870858 35.9327717,9.89699805 C34.9066618,10.2705592 30.2631579,13.3157895 30.2631579,13.3157895 L30.2631579,13.3157895 L30.2631579,13.3157895 Z M30.2631579,15.7368421 L37.0676401,15.7368421 C38.6091691,15.7368421 38.9732736,17.3918592 38.5997125,18.4321552 C38.3207237,19.4677217 36.9636099,19.533923 35.9327717,19.1556335 C34.9066618,18.7820724 30.2631579,15.7368421 30.2631579,15.7368421 L30.2631579,15.7368421 L30.2631579,15.7368421 Z"/>
    </g>
  </g>
</svg>
