<svg xmlns="http://www.w3.org/2000/svg" width="16" height="16" viewBox="0 0 16 16">
  <path fill="#000000" fill-rule="evenodd" d="M9.42802884,13.8865776 C10.0392045,13.7124295 10.4940348,13.4331619 10.6733092,13.1036299 C10.4752269,13.1105156 10.278822,13.107634 10.0868987,13.0966405 C10.0075702,13.0920965 9.90461699,13.083795 9.78245979,13.0699519 C9.67073625,13.0572912 9.56052567,13.04182 9.45377801,13.0231793 C9.45331446,13.4063838 9.44682059,13.7116338 9.42802884,13.8865776 Z M6.48157593,13.8865776 C5.87040009,13.7124296 5.41556973,13.4331619 5.23629535,13.1036299 C5.4343776,13.1105156 5.63078248,13.107634 5.8227058,13.0966405 C5.90203436,13.0920965 6.00498753,13.083795 6.12714473,13.0699519 C6.23886831,13.0572912 6.34907893,13.04182 6.45582662,13.0231793 C6.45629112,13.4063465 6.46278625,13.7116399 6.48157593,13.8865776 Z M6.85087766,12.621615 C6.7391958,12.6649523 6.64393908,12.6960156 6.55309511,12.7168942 C6.40383818,12.7511979 6.23797873,12.7776689 6.06719267,12.7970226 C6.00382909,12.8042031 5.94321961,12.8100013 5.88662805,12.8145645 C5.8481438,12.8176676 5.8169811,12.81978 5.79226312,12.8211959 C5.11410226,12.8600414 4.36615577,12.7857152 3.73566423,12.5180413 C3.03721128,12.2215145 2.33787329,11.4444084 2.12638609,10.8653189 C2.10761033,10.8139075 2.0188108,10.5951065 1.99760052,10.5391585 C1.96304188,10.4480004 1.93546605,10.3657414 1.91294458,10.2839179 C1.86749987,10.1188113 1.8383662,9.92081468 1.81975444,9.66536187 C1.79650757,9.34629041 1.87842128,8.64485443 2.0457031,8.14223925 C2.18102496,7.73565101 2.43175277,7.33589852 2.67665525,7.04946551 C2.73506834,6.98114672 2.79893097,6.91412368 2.86739831,6.84869801 C2.9991519,6.72279756 3.14130951,6.60878192 3.28340408,6.50936146 C3.33298222,6.47467272 3.37880842,6.44441325 3.41958266,6.41886555 C3.44314178,6.40410424 3.45912338,6.39455811 3.46623429,6.3904926 L3.62479711,6.29983752 L3.6027085,6.11595151 C3.60186009,6.10888858 3.60016829,6.09336639 3.59790607,6.07004683 C3.5940218,6.03000675 3.59010987,5.98347452 3.58644195,5.93111512 C3.55210636,5.44097631 3.56415906,4.90199221 3.65483483,4.40054324 C3.66697721,4.33339423 3.68044733,4.26777267 3.69527597,4.2037957 C3.82680871,3.63630824 4.23112096,2.93727066 4.62012956,2.50808177 C4.99105577,2.09884297 5.67964994,1.60033219 6.2437274,1.37966984 C6.60986418,1.23644022 6.99878801,1.14447053 7.38639095,1.09438199 C7.52609976,1.07632793 7.65683127,1.06494587 7.77559017,1.0589473 C7.85164538,1.05510571 7.90990546,1.054027 7.94739728,1.05439156 C7.99969906,1.054027 8.05795914,1.05510571 8.13401435,1.0589473 C8.25277325,1.06494587 8.38350476,1.07632793 8.52321357,1.09438199 C8.91081651,1.14447053 9.29974034,1.23644022 9.66587712,1.37966984 C10.2299546,1.60033219 10.9185488,2.09884297 11.289475,2.50808177 C11.6784836,2.93727066 12.0827958,3.63630824 12.2143286,4.2037957 C12.2291572,4.26777267 12.2426273,4.33339423 12.2547697,4.40054324 C12.3454455,4.90199221 12.3574982,5.44097631 12.3231626,5.93111512 C12.3194947,5.98347452 12.3155827,6.03000675 12.3116984,6.07004683 C12.3094362,6.09336639 12.3077444,6.10888858 12.306896,6.11595151 L12.2848074,6.29983752 L12.4433702,6.3904926 C12.4504811,6.39455811 12.4664627,6.40410424 12.4900219,6.41886555 C12.5307961,6.44441325 12.5766223,6.47467272 12.6262004,6.50936146 C12.768295,6.60878192 12.9104526,6.72279756 13.0422062,6.84869801 C13.1106736,6.91412368 13.1745362,6.98114672 13.2329493,7.04946551 C13.4778518,7.33589852 13.7285796,7.73565101 13.8639014,8.14223925 C14.0311832,8.64485443 14.113097,9.34629041 14.0898501,9.66536187 C14.0712383,9.92081468 14.0421046,10.1188113 13.9966599,10.2839179 C13.9741385,10.3657414 13.9465626,10.4480004 13.912004,10.5391585 C13.8907937,10.5951065 13.8019942,10.8139075 13.7832184,10.8653189 C13.5717312,11.4444084 12.8723932,12.2215145 12.1739403,12.5180413 C11.5434488,12.7857152 10.7955023,12.8600414 10.1173414,12.8211959 C10.0926234,12.81978 10.0614607,12.8176676 10.0229765,12.8145645 C9.96638491,12.8100013 9.90577543,12.8042031 9.84241185,12.7970226 C9.67162579,12.7776689 9.50576634,12.7511979 9.35650941,12.7168942 C9.26566544,12.6960156 9.17040872,12.6649523 9.05872686,12.621615 C9.00937498,12.6024644 8.83092162,12.5289264 8.7922304,12.5142178 C8.73705292,12.4932419 8.66920613,12.4608077 8.59244138,12.418963 C8.54810537,12.3947952 8.50147775,12.3678693 8.45317791,12.3386734 C8.37178651,12.2894746 8.28980221,12.2364028 8.21166974,12.1833145 C8.18433066,12.1647385 8.15948919,12.1475312 8.13767512,12.1321646 C8.12486729,12.1231423 7.95480226,12.0000296 7.95480226,12.0000296 L7.79766623,12.1138592 C7.75011533,12.1475312 7.72527386,12.1647385 7.69793478,12.1833145 C7.61980231,12.2364028 7.53781801,12.2894746 7.45642661,12.3386734 C7.40812677,12.3678693 7.36149915,12.3947952 7.31716314,12.418963 C7.24039839,12.4608077 7.1725516,12.4932419 7.11737412,12.5142178 C7.0786829,12.5289264 6.90022954,12.6024644 6.85087766,12.621615 Z M10.3646419,1.10615856 C10.5089692,1.09225692 10.6896815,1.08512589 10.8843614,1.1017198 C11.2062163,1.1291537 11.5668905,1.22597738 11.874461,1.40444245 C12.122814,1.54854707 12.3878571,1.73379318 12.6482151,1.92559735 C12.9337224,2.13592881 13.2095192,2.370313 13.4553892,2.62395664 C14.1401193,3.33033577 14.6405078,4.14247071 14.9221691,4.65578852 C15.0943474,4.96957743 15.409658,5.49210291 15.6280666,6.07892098 C15.7233731,6.33498952 15.8129916,6.60273696 15.8663047,6.86022643 C15.9242399,7.14003966 15.9419535,7.40738208 15.9470888,7.62508935 C15.9500939,7.75248748 15.9434501,7.90992178 15.9216607,8.05375247 C15.8711664,8.3870615 15.7214507,8.71386929 15.5347455,8.88061425 C15.2594179,9.12650712 14.8592319,9.1725729 14.6173706,9.17527926 C14.5829953,8.79338525 14.501371,8.33681271 14.3775432,7.96475945 C14.2162157,7.48003475 13.9293228,7.0226217 13.6418997,6.68645746 C13.5710626,6.60360776 13.4945578,6.5233169 13.4132281,6.44560036 C13.2598878,6.29907212 13.0965875,6.16809932 12.9332243,6.05379762 C12.8344207,5.98466691 12.8618456,6.00248572 12.8618456,6.00248572 C12.9014836,5.43765446 12.888455,4.85502726 12.7881645,4.30040758 C12.7744213,4.22440596 12.7591132,4.14983041 12.742181,4.0767776 C12.5870341,3.40740902 12.1358579,2.62734566 11.6879235,2.13314464 C11.3704844,1.7829176 10.8678853,1.38859421 10.3646419,1.10615856 L10.3646419,1.10615856 Z M5.55029054,1.10317257 C5.41181044,1.09132643 5.24359259,1.08636158 5.06340983,1.1017198 C4.7415549,1.1291537 4.38088074,1.22597738 4.07331024,1.40444245 C3.82495727,1.54854707 3.55991412,1.73379318 3.29955609,1.92559735 C3.01404879,2.13592881 2.73825199,2.370313 2.49238201,2.62395664 C1.80765197,3.33033577 1.30726344,4.14247071 1.02560216,4.65578852 C0.853423849,4.96957743 0.538113256,5.49210291 0.319704606,6.07892098 C0.224398092,6.33498952 0.134779668,6.60273696 0.0814665544,6.86022643 C0.0235313143,7.14003966 0.00581775077,7.40738208 0.000682451928,7.62508935 C-0.00232262682,7.75248748 0.00432109276,7.90992178 0.0261105529,8.05375247 C0.07660481,8.3870615 0.226320498,8.71386929 0.413025735,8.88061425 C0.674349155,9.11400013 1.04815257,9.16736978 1.29230328,9.17450918 C1.32671894,8.79277159 1.40831673,8.33656266 1.53206133,7.96475945 C1.69338879,7.48003475 1.98028175,7.0226217 2.26770481,6.68645746 C2.33854195,6.60360776 2.41504677,6.5233169 2.49637638,6.44560036 C2.64971676,6.29907212 2.81301699,6.16809932 2.97638025,6.05379762 C3.00156793,6.03617435 3.05237964,6.06944593 3.04544544,5.97046064 C3.00812089,5.43765446 3.02114953,4.85502726 3.12144003,4.30040758 C3.13518321,4.22440596 3.15049131,4.14983041 3.16742355,4.0767776 C3.32257039,3.40740902 3.77374667,2.62734566 4.22168101,2.13314464 C4.54024041,1.78168157 5.04526912,1.38581037 5.55029078,1.10317243 L5.55029054,1.10317257 Z M10.5310734,9.38157895 C10.778919,9.38157895 11.0193556,9.14291566 11.1496588,8.76770552 C11.2293335,8.53828072 11.2542373,8.25312307 11.2542373,7.95394737 C11.2542373,7.56116745 11.2207784,7.19891131 11.0907589,6.94078947 C10.9597797,6.68076231 10.7315039,6.52631579 10.5310734,6.52631579 C10.326803,6.52631579 10.1110915,6.67193545 9.97958309,6.94078947 C9.85396448,7.19760248 9.8079096,7.56874808 9.8079096,7.95394737 C9.8079096,8.20927133 9.82468873,8.47792125 9.88416581,8.68530037 C10.0083583,9.11832323 10.2610149,9.38157895 10.5310734,9.38157895 Z M6.93883789,14.4892009 C7.05901815,14.6901633 7.29184444,14.7802195 7.36919685,14.8206127 C7.54018684,14.9099032 7.95480226,14.9180264 7.95480226,14.9180264 C7.95480226,14.9180264 8.36941768,14.9099032 8.54040767,14.8206127 C8.61776008,14.7802195 8.85058637,14.6901633 8.97076663,14.4892009 C9.08335113,14.3009399 9.13602896,14.0208027 9.15403498,13.8926444 C9.18075826,13.7024406 9.18267907,13.1815146 9.18261701,12.966342 C9.08132292,12.9401533 8.97905084,12.9057331 8.86569486,12.8617461 C8.80876694,12.8396557 8.63260968,12.7670639 8.60263877,12.7556704 C8.52182908,12.7249503 8.43306898,12.6825185 8.3365924,12.6299287 C8.28481485,12.6017046 8.23130798,12.5708061 8.17644765,12.5376446 C8.08611975,12.4830439 7.95480226,12.3972269 7.95480226,12.3972269 C7.95480226,12.3972269 7.80770225,12.492584 7.73315687,12.5376446 C7.67829654,12.5708061 7.62478967,12.6017046 7.57301212,12.6299287 C7.47653554,12.6825185 7.38777544,12.7249503 7.30696575,12.7556704 C7.27699484,12.7670639 7.10083758,12.8396557 7.04390966,12.8617461 C6.93055368,12.9057331 6.82828158,12.9401533 6.72698748,12.966342 C6.7269259,13.1814775 6.7288494,13.702463 6.75556954,13.8926444 C6.77357556,14.0208027 6.82625339,14.3009399 6.93883789,14.4892009 Z M7.95480226,11.4547656 C7.95480226,11.4547656 7.71116314,11.4644164 7.50035461,11.2967338 C7.42282364,11.2350637 7.27025429,11.1194594 7.15642223,10.9766081 C7.02368379,10.8100306 6.93300662,10.615727 6.91225378,10.570029 C6.87963292,10.4981975 6.83470578,10.3576801 6.84229383,10.2494629 C6.85004704,10.1388903 6.90347836,10.0471357 6.95098962,9.99961305 C6.97787067,9.97272553 7.12573156,9.85998544 7.31833541,9.81393253 C7.50215921,9.769979 7.71918624,9.76112097 7.84642865,9.76021498 C7.91284714,9.75974208 7.99682179,9.75973948 8.0633288,9.76021608 C8.19059212,9.76112807 8.40751893,9.7699966 8.59126911,9.81393253 C8.78387296,9.85998544 8.93173385,9.97272553 8.9586149,9.99961305 C9.00612616,10.0471357 9.05955748,10.1388903 9.06731069,10.2494629 C9.07489874,10.3576801 9.0299716,10.4981975 8.99735074,10.570029 C8.9765979,10.615727 8.88592073,10.8100306 8.75318229,10.9766081 C8.63935023,11.1194594 8.48678088,11.2350637 8.40924991,11.2962883 C8.19844138,11.4644164 7.95480226,11.4547656 7.95480226,11.4547656 Z M5.37853107,9.33552632 C5.6263766,9.33552632 5.86681325,9.09686303 5.9971164,8.72165289 C6.07679115,8.49222809 6.10169492,8.20707044 6.10169492,7.90789474 C6.10169492,7.51511481 6.06823598,7.15285868 5.93821652,6.89473684 C5.80723731,6.63470968 5.57896157,6.48026316 5.37853107,6.48026316 C5.17426062,6.48026316 4.95854912,6.62588282 4.82704072,6.89473684 C4.70142211,7.15154985 4.65536723,7.52269545 4.65536723,7.90789474 C4.65536723,8.16321869 4.67214636,8.43186861 4.73162344,8.63924774 C4.85581596,9.0722706 5.10847254,9.33552632 5.37853107,9.33552632 Z"/>
</svg>
