<svg xmlns="http://www.w3.org/2000/svg" width="16" height="16" viewBox="0 0 16 16">
  <path fill="#000000" fill-rule="evenodd" d="M8,16 C12.418278,16 16,12.418278 16,8 C16,3.581722 12.418278,0 8,0 C3.581722,0 0,3.581722 0,8 C0,12.418278 3.581722,16 8,16 Z M4.98246528,3.58732639 L4.98246528,12.3555556 L8.3609375,12.3555556 C10.9920139,12.3555556 12.5414931,10.7210069 12.5414931,7.93802083 C12.5414931,5.15503472 10.9920139,3.58732639 8.3609375,3.58732639 L4.98246528,3.58732639 Z M6.81753472,5.10034722 L8.1421875,5.10034722 C9.75850694,5.10034722 10.6699653,6.10902778 10.6699653,7.94409722 C10.6699653,9.83993056 9.7828125,10.8364583 8.1421875,10.8364583 L6.81753472,10.8364583 L6.81753472,5.10034722 Z"/>
</svg>
