<svg xmlns="http://www.w3.org/2000/svg" width="16" height="16" viewBox="0 0 16 16">
  <path fill="#000000" fill-rule="evenodd" d="M8.82347101,12.712134 C8.86151737,12.726329 9.03699651,12.797299 9.08552585,12.8157808 C9.19534636,12.8576048 9.28901546,12.8875833 9.37834536,12.9077328 C9.52511468,12.9408386 9.6882098,12.9663852 9.85614943,12.9850631 C9.91845695,12.9919929 9.97805627,12.9975886 10.0337046,13.0019924 C10.0715475,13.0049871 10.1021908,13.0070258 10.1264968,13.0083922 C10.793355,13.0458812 11.5288357,12.9741505 12.1488191,12.715824 C12.8356311,12.4296521 13.5233135,11.679683 13.7312759,11.1208157 C13.7497387,11.0711996 13.8370583,10.8600393 13.857915,10.806045 C13.8918977,10.7180702 13.9190139,10.6386837 13.9411601,10.5597176 C13.9858473,10.4003766 14.0144955,10.2092942 14.032797,9.96276193 C14.0556564,9.65483264 13.975108,8.97789126 13.8106142,8.49282772 C13.6775477,8.1004378 13.4309987,7.71464492 13.1901779,7.43821433 C13.1327384,7.37228128 13.0699401,7.30759873 13.0026139,7.24445776 C12.8730562,7.12295384 12.7332679,7.01291969 12.5935415,6.91697106 C12.5447897,6.88349367 12.4997273,6.85429088 12.4596326,6.82963532 C12.4364661,6.81538948 12.4207509,6.80617672 12.4137585,6.80225317 L12.2578384,6.71476383 L12.2795589,6.53729923 C12.2803931,6.53048294 12.2820567,6.51550281 12.2842813,6.49299758 C12.2881008,6.45435572 12.2919475,6.40944842 12.2955543,6.35891745 C12.3293176,5.8858946 12.3174658,5.36573216 12.2283013,4.88179411 C12.2163613,4.81698999 12.2031157,4.75365998 12.1885342,4.69191712 C12.0591937,4.14424668 11.6616199,3.46961994 11.2790948,3.05541859 C10.9143507,2.66047068 10.2372331,2.17936821 9.68255694,1.96641153 C9.32252245,1.82818358 8.94008068,1.73942553 8.55893779,1.69108612 C8.42155746,1.67366251 8.29300481,1.66267791 8.17622522,1.65688882 C8.1014376,1.65318139 8.04414852,1.65214035 8.00728157,1.65249217 C7.95585148,1.65214035 7.8985624,1.65318139 7.82377478,1.65688882 C7.70699519,1.66267791 7.57844254,1.67366251 7.44106221,1.69108612 C7.05991932,1.73942553 6.67747755,1.82818358 6.31744306,1.96641153 C5.76276688,2.17936821 5.08564928,2.66047068 4.72090518,3.05541859 C4.33838005,3.46961994 3.94080634,4.14424668 3.81146581,4.69191712 C3.79688432,4.75365998 3.7836387,4.81698999 3.77169869,4.88179411 C3.68253418,5.36573216 3.67068236,5.8858946 3.70444569,6.35891745 C3.70805248,6.40944842 3.71189922,6.45435572 3.71571875,6.49299758 C3.71794326,6.51550281 3.71960687,6.53048294 3.72044114,6.53729923 L3.7421616,6.71476383 L3.5862415,6.80225317 C3.5792491,6.80617672 3.56353386,6.81538948 3.54036739,6.82963532 C3.50027272,6.85429088 3.45521029,6.88349367 3.40645846,6.91697106 C3.26673213,7.01291969 3.12694382,7.12295384 2.99738611,7.24445776 C2.9300599,7.30759873 2.86726165,7.37228128 2.8098221,7.43821433 C2.56900133,7.71464492 2.32245232,8.1004378 2.18938583,8.49282772 C2.02489204,8.97789126 1.94434355,9.65483264 1.96720298,9.96276193 C1.98550454,10.2092942 2.01415265,10.4003766 2.05883994,10.5597176 C2.08098606,10.6386837 2.10810229,10.7180702 2.14208496,10.806045 C2.16294173,10.8600393 2.25026126,11.0711996 2.2687241,11.1208157 C2.47668651,11.679683 3.16436887,12.4296521 3.85118094,12.715824 C4.47116428,12.9741505 5.206645,13.0458812 5.87350318,13.0083922 C5.89780919,13.0070258 5.92845251,13.0049871 5.96629536,13.0019924 C6.02194373,12.9975886 6.08154305,12.9919929 6.14385057,12.9850631 C6.3117902,12.9663852 6.47488532,12.9408386 6.62165464,12.9077328 C6.71098454,12.8875833 6.80465364,12.8576048 6.91447415,12.8157808 C6.96300349,12.797299 7.13848263,12.726329 7.17652899,12.712134 C7.53350199,12.5789486 8.46649801,12.5789486 8.82347101,12.712134 Z M9.1792455,13.5979806 C9.16153959,13.7216636 9.10973972,13.9920182 8.99903163,14.173705 C8.88085438,14.3676496 8.65190852,14.454561 8.57584532,14.4935437 C8.40770516,14.5797161 8,14.5875556 8,14.5875556 C8,14.5875556 7.59229484,14.5797161 7.42415468,14.4935437 C7.34809148,14.454561 7.11914562,14.3676496 7.00096837,14.173705 C6.89026028,13.9920182 6.83846041,13.7216636 6.8207545,13.5979806 C6.80705568,13.5022889 6.79998483,13.3198168 6.79636299,13.1376403 C6.98382886,13.0826965 7.15293043,13.0055609 7.26974488,12.9619778 C7.56659799,12.8512229 8.43340201,12.8512229 8.73025512,12.9619778 C8.84706986,13.005561 9.01617198,13.0826969 9.2036384,13.1376407 C9.20001698,13.3198119 9.19294608,13.5022766 9.1792455,13.5979806 Z M4.97901966,1.69816768 C4.66252898,1.72464357 4.30786606,1.81808611 4.00542174,1.99031906 C3.76120798,2.12939146 3.50058222,2.30816866 3.24456349,2.4932749 C2.96381465,2.69626146 2.69261446,2.9224608 2.45084231,3.16724704 C1.77752444,3.84895896 1.28547572,4.63273364 1.00850879,5.12812606 C0.839200118,5.43095727 0.529144702,5.93523582 0.314376196,6.50156183 C0.220658124,6.7486883 0.13253334,7.00708583 0.0801087785,7.2555836 C0.0231391258,7.52562558 0.00572078826,7.78363223 0.000671077729,7.99373702 C-0.00228391637,8.11668633 0.00424907454,8.26862293 0.025675377,8.40743096 C0.0753280631,8.72910062 0.222548489,9.04449607 0.406141973,9.2054182 C0.817944215,9.56636834 1.51379677,9.48115512 1.51379677,9.48115512 L1.54150553,9.45079934 C1.57701407,9.09925903 1.65414844,8.68725106 1.76848493,8.35009265 C1.92286157,7.89486282 2.19904591,7.46269742 2.47470994,7.14627135 C2.5423303,7.06865207 2.61548812,6.9932991 2.69335426,6.92027341 C2.84060113,6.78217994 2.99771465,6.65850829 3.15486949,6.55059167 C3.24967741,6.48548804 3.2679555,6.47743265 3.2679555,6.47743265 C3.2679555,6.47743265 3.26332852,6.42137393 3.26112911,6.39056041 C3.22491649,5.88322306 3.23756804,5.32796141 3.33461129,4.80126173 C3.34786306,4.72933805 3.3626148,4.65880694 3.37892008,4.589765 C3.52761105,3.96015842 3.96358723,3.22036808 4.39439872,2.75388186 C4.71637334,2.4052451 5.23910587,2.00832746 5.75030049,1.73874095 C5.62304338,1.71460323 5.32323452,1.66937253 4.97901966,1.69816768 Z M11.0211778,1.69816768 C11.3376685,1.72464357 11.6923314,1.81808611 11.9947757,1.99031906 C12.2389895,2.12939146 12.4996152,2.30816866 12.7556339,2.4932749 C13.0363828,2.69626146 13.307583,2.9224608 13.5493551,3.16724704 C14.222673,3.84895896 14.7147217,4.63273364 14.9916886,5.12812606 C15.1609973,5.43095727 15.4710527,5.93523582 15.6858212,6.50156183 C15.7795393,6.7486883 15.8676641,7.00708583 15.9200887,7.2555836 C15.9770583,7.52562558 15.9944766,7.78363223 15.9995264,7.99373702 C16.0024814,8.11668633 15.9959484,8.26862293 15.9745221,8.40743096 C15.9248694,8.72910062 15.7776489,9.04449607 15.5940555,9.2054182 C15.1822532,9.56636834 14.4864007,9.48115512 14.4864007,9.48115512 L14.4584699,9.45055613 C14.4229504,9.09906901 14.3458252,8.68717331 14.2315151,8.35009265 C14.0771384,7.89486282 13.8009541,7.46269742 13.5252901,7.14627135 C13.4576697,7.06865207 13.3845119,6.9932991 13.3066457,6.92027341 C13.1593989,6.78217994 13.0022854,6.65850829 12.8451305,6.55059167 C12.8033631,6.52191039 12.732445,6.47589041 12.732445,6.47589041 C12.732445,6.47589041 12.7349703,6.44520687 12.7388709,6.39056041 C12.7750835,5.88322306 12.762432,5.32796141 12.6653887,4.80126173 C12.6521369,4.72933805 12.6373852,4.65880694 12.6210799,4.589765 C12.4723889,3.96015842 12.0364128,3.22036808 11.6056013,2.75388186 C11.2836376,2.40525698 10.7609297,2.0083545 10.2497517,1.7387685 C10.3769259,1.71463766 10.6768319,1.66936157 11.0211778,1.69816768 Z M8,11.8674563 C8,11.8674563 7.76042153,11.8767701 7.55312648,11.7149431 C7.47688769,11.6554265 7.32686116,11.5438593 7.2149263,11.4059964 C7.08440017,11.2452359 6.99523429,11.0577175 6.97482733,11.0136153 C6.94275015,10.9442922 6.8985718,10.8086817 6.90603338,10.7042435 C6.91365736,10.5975322 6.96619817,10.5089818 7.01291757,10.4631186 C7.03935061,10.43717 7.18474715,10.3283669 7.37414094,10.2839222 C7.55490101,10.2415035 7.76831092,10.2329548 7.89343262,10.2320805 C7.95874413,10.2316241 8.04131921,10.2316216 8.10671776,10.2320815 C8.23186002,10.2329617 8.44517139,10.2415205 8.62585906,10.2839222 C8.81525285,10.3283669 8.96064939,10.43717 8.98708243,10.4631186 C9.03380183,10.5089818 9.08634264,10.5975322 9.09396662,10.7042435 C9.1014282,10.8086817 9.05724985,10.9442922 9.02517267,11.0136153 C9.00476571,11.0577175 8.91559983,11.2452359 8.7850737,11.4059964 C8.67313884,11.5438593 8.52311231,11.6554265 8.44687352,11.7145132 C8.23957847,11.8767701 8,11.8674563 8,11.8674563 Z M10.5333333,9.68888889 C10.7770481,9.68888889 11.0134775,9.45855988 11.1416089,9.09645231 C11.2199557,8.87503917 11.2444444,8.5998394 11.2444444,8.31111111 C11.2444444,7.93204731 11.2115432,7.58244139 11.0836907,7.33333333 C10.9548945,7.08238649 10.7304233,6.93333333 10.5333333,6.93333333 C10.3324674,6.93333333 10.1203511,7.07386786 9.99103448,7.33333333 C9.86750952,7.58117827 9.82222222,7.93936323 9.82222222,8.31111111 C9.82222222,8.55751899 9.8387217,8.81678749 9.8972075,9.0169248 C10.0193301,9.43482623 10.2677758,9.68888889 10.5333333,9.68888889 Z M5.46666667,9.64444444 C5.71038143,9.64444444 5.94681081,9.41411543 6.07494224,9.05200787 C6.15328908,8.83059473 6.17777778,8.55539496 6.17777778,8.26666667 C6.17777778,7.88760287 6.14487649,7.53799695 6.01702402,7.28888889 C5.8882278,7.03794204 5.66375666,6.88888889 5.46666667,6.88888889 C5.26580072,6.88888889 5.05368441,7.02942342 4.92436782,7.28888889 C4.80084285,7.53673382 4.75555556,7.89491878 4.75555556,8.26666667 C4.75555556,8.51307455 4.77205503,8.77234304 4.83054083,8.97248036 C4.95266347,9.39038178 5.20110911,9.64444444 5.46666667,9.64444444 Z"/>
</svg>
