<svg xmlns="http://www.w3.org/2000/svg" width="180" height="180" viewBox="0 0 180 180">
  <path fill="#000000" fill-rule="evenodd" d="M106.297569,157.911413 C113.0587,156.020663 118.09026,152.988615 120.073483,149.410839 C117.882198,149.485598 115.709469,149.454311 113.586317,149.334954 C112.708745,149.285619 111.569825,149.195489 110.218461,149.045193 C108.98252,148.907733 107.763315,148.73976 106.582419,148.537375 C106.577291,152.697881 106.505453,156.012024 106.297569,157.911413 Z M73.7024337,157.911414 C66.941301,156.020664 61.9097402,152.988615 59.9265173,149.410839 C62.1178022,149.485598 64.2905312,149.454311 66.4136829,149.334954 C67.2912552,149.285619 68.4301745,149.195489 69.7815386,149.045193 C71.0174807,148.907733 72.2366857,148.73976 73.417582,148.537375 C73.4227205,152.697476 73.4945729,156.012091 73.7024337,157.911414 Z M77.7878341,144.177534 C76.5523535,144.648054 75.498576,144.985312 74.4936147,145.211994 C72.8424598,145.584434 71.0076398,145.871833 69.1183189,146.08196 C68.4173593,146.15992 67.746867,146.222871 67.1208228,146.272414 C66.6950908,146.306105 66.3503534,146.32904 66.0769107,146.344412 C58.5747563,146.766163 50.3005982,145.959194 43.3257856,143.05302 C35.5991497,139.833586 27.8627233,131.396434 25.5231461,125.109176 C25.3154392,124.550996 24.3330944,122.175442 24.0984558,121.568006 C23.7161508,120.57829 23.4110931,119.685192 23.1619494,118.796823 C22.6592173,117.004237 22.3369261,114.854559 22.1310335,112.081072 C21.873865,108.616867 22.7800355,101.001277 24.6305905,95.5443119 C26.1275886,91.1299252 28.901265,86.7897554 31.6104987,83.6799112 C32.2566936,82.9381644 32.9631738,82.2104857 33.7205938,81.5001498 C35.1781179,80.1332307 36.7507365,78.8953466 38.3226576,77.8159244 C38.8711158,77.4393038 39.3780681,77.1107724 39.8291331,76.8333974 C40.0897559,76.6731317 40.2665524,76.5694881 40.3452168,76.5253482 L42.099318,75.5410931 L41.8549628,73.5446164 C41.8455773,73.4679331 41.8268617,73.2994066 41.8018359,73.0462227 C41.7588662,72.6115018 41.7155904,72.1062948 41.675014,71.5378213 C41.2951766,66.2163143 41.4285096,60.3644868 42.4316103,54.9201837 C42.5659354,54.1911374 42.7149486,53.4786747 42.8789904,52.7840676 C44.3340713,46.6227751 48.8067756,39.0332243 53.1101832,34.3734592 C57.2135544,29.9302951 64.8311274,24.5178924 71.0712344,22.1221297 C75.1216224,20.5670652 79.4240924,19.5685372 83.7119499,19.0247188 C85.2574786,18.8287032 86.7036959,18.7051265 88.0174663,18.6399992 C88.858827,18.5982906 89.5033292,18.5865789 89.9180824,18.5905369 C90.4966708,18.5865789 91.141173,18.5982906 91.9825337,18.6399992 C93.2963041,18.7051265 94.7425214,18.8287032 96.2880501,19.0247188 C100.575908,19.5685372 104.878378,20.5670652 108.928766,22.1221297 C115.168873,24.5178924 122.786446,29.9302951 126.889817,34.3734592 C131.193224,39.0332243 135.665929,46.6227751 137.12101,52.7840676 C137.285051,53.4786747 137.434065,54.1911374 137.56839,54.9201837 C138.57149,60.3644868 138.704823,66.2163143 138.324986,71.5378213 C138.28441,72.1062948 138.241134,72.6115018 138.198164,73.0462227 C138.173138,73.2994066 138.154423,73.4679331 138.145037,73.5446164 L137.900682,75.5410931 L139.654783,76.5253482 C139.733448,76.5694881 139.910244,76.6731317 140.170867,76.8333974 C140.621932,77.1107724 141.128884,77.4393038 141.677342,77.8159244 C143.249264,78.8953466 144.821882,80.1332307 146.279406,81.5001498 C147.036826,82.2104857 147.743306,82.9381644 148.389501,83.6799112 C151.098735,86.7897554 153.872411,91.1299252 155.369409,95.5443119 C157.219965,101.001277 158.126135,108.616867 157.868966,112.081072 C157.663074,114.854559 157.340783,117.004237 156.838051,118.796823 C156.588907,119.685192 156.283849,120.57829 155.901544,121.568006 C155.666906,122.175442 154.684561,124.550996 154.476854,125.109176 C152.137277,131.396434 144.40085,139.833586 136.674214,143.05302 C129.699402,145.959194 121.425244,146.766163 113.923089,146.344412 C113.649647,146.32904 113.304909,146.306105 112.879177,146.272414 C112.253133,146.222871 111.582641,146.15992 110.881681,146.08196 C108.99236,145.871833 107.15754,145.584434 105.506385,145.211994 C104.501424,144.985312 103.447647,144.648054 102.212166,144.177534 C101.666211,143.969613 99.6920704,143.171201 99.2640488,143.011508 C98.6536479,142.783769 97.9030928,142.431627 97.0538828,141.977312 C96.5634156,141.71492 96.0475977,141.422581 95.5132806,141.105597 C94.6128883,140.571439 93.7059369,139.995231 92.8415965,139.418843 C92.5391579,139.217161 92.2643491,139.030338 92.0230311,138.863501 C91.8813444,138.765545 90,137.428893 90,137.428893 L88.2616826,138.664757 C87.7356509,139.030338 87.4608421,139.217161 87.1584035,139.418843 C86.2940631,139.995231 85.3871117,140.571439 84.4867194,141.105597 C83.9524023,141.422581 83.4365844,141.71492 82.9461172,141.977312 C82.0969072,142.431627 81.3463521,142.783769 80.7359512,143.011508 C80.3079296,143.171201 78.3337893,143.969613 77.7878341,144.177534 Z M116.658851,19.1525787 C118.255472,19.0016466 120.254601,18.9242239 122.408248,19.1043864 C125.968768,19.4022402 129.958726,20.4534687 133.361225,22.3910895 C136.10863,23.9556539 139.040669,25.9668974 141.92088,28.0493426 C145.079305,30.3329414 148.130307,32.877684 150.850243,35.6315293 C158.425069,43.3007883 163.960617,52.1182535 167.076495,57.6914182 C168.981218,61.0982693 172.469341,66.771403 174.885487,73.1425706 C175.939815,75.9227434 176.931219,78.8297155 177.520996,81.6253155 C178.161904,84.6632878 178.35786,87.5658626 178.41467,89.9295415 C178.447913,91.3127212 178.374417,93.0220079 178.133371,94.5835983 C177.574779,98.202382 175.918549,101.750581 173.853122,103.560955 C170.807311,106.230649 166.380253,106.730791 163.704662,106.760175 C163.324386,102.613897 162.421417,97.6568237 161.051572,93.6173884 C159.266887,88.354663 156.093133,83.3884641 152.913516,79.738681 C152.12988,78.83917 151.283545,77.9674407 150.383836,77.123661 C148.687508,75.532783 146.881,74.1107926 145.073793,72.8698027 C143.980779,72.1192407 144.284167,72.3127021 144.284167,72.3127021 C144.722663,66.1802484 144.578533,59.8545817 143.46907,53.8329966 C143.317036,53.0078362 143.14769,52.1981587 142.960377,51.405014 C141.244065,44.1375836 136.252928,35.6683243 131.297654,30.3027133 C127.785984,26.5002482 122.225981,22.2190229 116.658851,19.1525787 L116.658851,19.1525787 Z M63.4000891,19.1201593 C61.868153,18.9915441 60.007243,18.9376401 58.0139712,19.1043864 C54.453451,19.4022402 50.4634932,20.4534687 47.0609945,22.3910895 C44.3135898,23.9556539 41.38155,25.9668974 38.5013392,28.0493426 C35.3429148,30.3329414 32.2919127,32.877684 29.571976,35.6315293 C21.9971499,43.3007883 16.4616019,52.1182535 13.3457239,57.6914182 C11.4410013,61.0982693 7.95287789,66.771403 5.5367322,73.1425706 C4.48240389,75.9227434 3.49100008,78.8297155 2.90122376,81.6253155 C2.26031516,84.6632878 2.06435887,87.5658626 2.00754962,89.9295415 C1.97430594,91.3127212 2.04780209,93.0220079 2.28884799,94.5835983 C2.84744071,98.202382 4.50367051,101.750581 6.5690972,103.560955 C9.45998753,106.094859 13.5951878,106.674301 16.2961051,106.751814 C16.6768283,102.607234 17.5795038,97.6541089 18.9484285,93.6173884 C20.7331135,88.354663 23.9068668,83.3884641 27.0864844,79.738681 C27.8701203,78.83917 28.7164549,77.9674407 29.6161637,77.123661 C31.3124917,75.532783 33.1190004,74.1107926 34.9262065,72.8698027 C35.2048452,72.6784644 35.7669498,73.0396987 35.6902402,71.9650012 C35.2773373,66.1802484 35.4214667,59.8545817 36.5309303,53.8329966 C36.6829643,53.0078362 36.8523101,52.1981587 37.039623,51.405014 C38.7559349,44.1375836 43.7470725,35.6683243 48.7023461,30.3027133 C52.2264095,26.4868285 57.8132897,22.1887983 63.4000917,19.1201579 L63.4000891,19.1201593 Z M118.5,109 C121.241791,109 123.901622,106.408799 125.3431,102.335088 C126.224502,99.8441907 126.5,96.7481933 126.5,93.5 C126.5,89.2355323 126.129861,85.3024657 124.69152,82.5 C123.242563,79.676848 120.717262,78 118.5,78 C116.240258,78 113.85395,79.5810135 112.399138,82.5 C111.009482,85.2882555 110.5,89.3178363 110.5,93.5 C110.5,96.2720887 110.685619,99.1888592 111.343584,101.440404 C112.717464,106.141795 115.512477,109 118.5,109 Z M78.7608941,164.454181 C80.0903883,166.636058 82.6660291,167.613812 83.5217401,168.052366 C85.4133169,169.021806 90,169.110001 90,169.110001 C90,169.110001 94.5866831,169.021806 96.4782599,168.052366 C97.3339709,167.613812 99.9096117,166.636058 101.239106,164.454181 C102.484572,162.410205 103.06732,159.368715 103.266512,157.977282 C103.562138,155.912212 103.583387,150.256445 103.582701,147.920285 C102.462135,147.63595 101.33075,147.262245 100.076749,146.784672 C99.4469843,146.544833 97.4982446,145.756694 97.1666914,145.632993 C96.2727342,145.29946 95.2908256,144.838772 94.2235534,144.267798 C93.6507643,143.961364 93.0588445,143.625895 92.4519521,143.265856 C91.4526998,142.673048 90,141.741321 90,141.741321 C90,141.741321 88.3727062,142.776626 87.5480479,143.265856 C86.9411555,143.625895 86.3492357,143.961364 85.7764466,144.267798 C84.7091744,144.838772 83.7272658,145.29946 82.8333086,145.632993 C82.5017554,145.756694 80.5530157,146.544833 79.9232506,146.784672 C78.66925,147.262245 77.537865,147.63595 76.417299,147.920285 C76.4166178,150.256042 76.4378965,155.912455 76.7334881,157.977282 C76.9326796,159.368715 77.5154282,162.410205 78.7608941,164.454181 Z M90,131.508884 C90,131.508884 87.3047423,131.613664 84.9726729,129.79311 C84.1149865,129.123548 82.4271881,127.868417 81.1679209,126.317459 C79.6995019,124.508904 78.6963858,122.399322 78.4668075,121.903172 C78.1059392,121.123287 77.6089327,119.59767 77.6928755,118.42274 C77.7786453,117.222238 78.3697294,116.226045 78.8953227,115.710085 C79.1926943,115.418163 80.8284054,114.194128 82.9590855,113.694125 C84.9926363,113.216915 87.3934978,113.120742 88.8011169,113.110906 C89.5358714,113.105771 90.4648411,113.105743 91.2005748,113.110917 C92.6084253,113.120819 95.0081782,113.217106 97.0409145,113.694125 C99.1715946,114.194128 100.807306,115.418163 101.104677,115.710085 C101.630271,116.226045 102.221355,117.222238 102.307124,118.42274 C102.391067,119.59767 101.894061,121.123287 101.533193,121.903172 C101.303614,122.399322 100.300498,124.508904 98.8320791,126.317459 C97.5728119,127.868417 95.8850135,129.123548 95.0273271,129.788273 C92.6952577,131.613664 90,131.508884 90,131.508884 Z M61.5,108.5 C64.2417911,108.5 66.9016216,105.908799 68.3431002,101.835088 C69.2245021,99.3441907 69.5,96.2481933 69.5,93 C69.5,88.7355323 69.1298606,84.8024657 67.6915202,82 C66.2425627,79.176848 63.7172624,77.5 61.5,77.5 C59.2402581,77.5 56.8539496,79.0810135 55.3991379,82 C54.0094821,84.7882555 53.5,88.8178363 53.5,93 C53.5,95.7720887 53.6856191,98.6888592 54.3435843,100.940404 C55.7174641,105.641795 58.5124775,108.5 61.5,108.5 Z"/>
</svg>
