<svg xmlns="http://www.w3.org/2000/svg" width="16" height="16" viewBox="0 0 16 16">
  <path fill="#000000" fill-rule="evenodd" stroke="#000000" d="M90,180 C139.705627,180 180,139.705627 180,90 C180,40.2943725 139.705627,0 90,0 C40.2943725,0 0,40.2943725 0,90 C0,139.705627 40.2943725,180 90,180 Z M56.0527344,40.3574219 L56.0527344,139 L94.0605469,139 C123.660156,139 141.091797,120.611328 141.091797,89.3027344 C141.091797,57.9941406 123.660156,40.3574219 94.0605469,40.3574219 L56.0527344,40.3574219 Z M76.6972656,57.3789062 L91.5996094,57.3789062 C109.783203,57.3789062 120.037109,68.7265625 120.037109,89.3710938 C120.037109,110.699219 110.056641,121.910156 91.5996094,121.910156 L76.6972656,121.910156 L76.6972656,57.3789062 Z"/>
</svg>
